PathFileType	4	(X/Y/Z)	T1_P2_NoVision_Movement_2_0-733.trc
DataRate	CameraRate	NumFrames	NumMarkers	Units	OrigDataRate	OrigDataStartFrame	OrigNumFrames
60	60	5	27	m	60	274	733
Frame#	Time	RHip			RKnee			RAnkle			RBigToe			RSmallToe			RHeel			LHip			LKnee			LAnkle			LBigToe			LSmallToe			LHeel			Neck			Head			Nose			RShoulder			RElbow			RWrist			RThumb			RIndex			RPinky			LShoulder			LElbow			LWrist			LThumb			LIndex			LPinky		
		X1	Y1	Z1	X2	Y2	Z2	X3	Y3	Z3	X4	Y4	Z4	X5	Y5	Z5	X6	Y6	Z6	X7	Y7	Z7	X8	Y8	Z8	X9	Y9	Z9	X10	Y10	Z10	X11	Y11	Z11	X12	Y12	Z12	X13	Y13	Z13	X14	Y14	Z14	X15	Y15	Z15	X16	Y16	Z16	X17	Y17	Z17	X18	Y18	Z18	X19	Y19	Z19	X20	Y20	Z20	X21	Y21	Z21	X22	Y22	Z22	X23	Y23	Z23	X24	Y24	Z24	X25	Y25	Z25	X26	Y26	Z26	X27	Y27	Z27
275	4.583333333333333	460.4600835447299	3626.3036640864293	542.2863658022126	848.151976222249	3668.971217932479	553.3541634970509	1253.1565904894883	3715.655303901138	624.2951593988929	1328.3965946878968	3610.954271338287	607.9867662264271	1310.8199377072067	3630.671358508079	552.6689816569	1276.4557842840422	3695.855481780837	630.180048658874	462.36446322626045	3506.7313255717245	733.3668724512033	879.9294898843044	3557.9143526989774	750.6866874658183	1235.2411711085952	3598.1698391950204	735.4383121667205	1331.4318348876232	3559.777551986697	690.059621310064	1279.8423653061832	3474.884253264671	721.3082678194114	1272.6421954117118	3616.930887034252	726.1685168395917	-122.81903919046364	3534.0654636632216	640.0141404963623	-383.24621090657433	3502.876025280046	628.9413942959407	-238.93870466572832	3431.8007663102417	594.5770046632439	-36.26673121988335	3650.3971771184224	531.9266134812494	186.73164892207345	3717.1033286727375	450.6802936020603	402.29110610709336	3652.8023179233815	407.610681579366	479.867584716951	3503.231932236078	377.1775750264303	488.47393486228333	3494.3030213168636	367.22929797868744	501.9775044669408	3570.4118466239	375.65421643391613	-13.481827526280778	3542.6122224316186	826.8106661830054	243.28473261947568	3465.364503742056	855.2097653268443	491.0626815745189	3425.853282967321	842.8114598999522	595.8816694450223	3431.99206954627	819.1840120462617	607.473950310582	3405.0736083392144	824.8332531687554	607.0397329581199	3380.537464614334	865.8283098925175
276	4.6	461.47012842507536	3624.4278705113884	541.508270622352	848.6480646696655	3672.767499456645	554.1665299523228	1249.4188299021266	3712.844405075037	621.8161475085329	1330.2025389547148	3614.605386209631	608.945023267381	1312.4993882687065	3634.505292808876	552.7934886155209	1276.2078428968782	3697.1786798664252	629.9560917372331	462.7362165537428	3506.1231544051016	733.0286536111058	880.6954570222605	3562.058378600924	751.6912965029373	1236.1505356254004	3599.1537481273544	736.5565506255582	1331.4881941021813	3560.1067505282326	689.616730684197	1279.8469611539429	3474.928098897186	721.235998773252	1272.1983544427812	3617.065360939083	725.6874221233021	-122.80709678348873	3534.1439562272826	640.0540881526675	-382.8013341458084	3502.5234232511048	628.7377894030774	-239.0955357644716	3438.673996846363	596.5103153931964	-35.71783886790533	3652.182335922437	532.2203642496073	186.2075849998025	3720.195161489154	454.49294118916566	400.4986681113623	3652.107930763131	406.60818499974346	472.6474334554995	3497.7021931888494	373.63919441784327	484.4636745475799	3492.3301006430274	365.70550737659744	499.1274108384106	3565.600584943927	374.0712593244838	-13.836243294911068	3532.0927824660303	820.3473600365921	241.4808261766279	3459.9729773113468	853.1892279014139	491.37535467464886	3428.18660964812	843.7195348055789	596.1418685264781	3431.7592380241713	818.7598505475665	608.8339488327046	3412.145778998795	826.5503759426081	608.0216832823673	3380.696570212396	866.0348255177676
277	4.616666666666666	461.35886103035756	3622.600490670717	540.8917431017525	849.7858740111084	3674.6251150723383	554.8284197808478	1245.558299699428	3709.756593480282	619.3239688227496	1332.3888858056262	3621.7308719541747	610.8606252529675	1312.8746421296928	3637.9149443566403	551.6196307494694	1277.1580655700448	3700.326329544207	630.939108408855	462.18094782431933	3505.6687315253384	732.8473283169521	881.1561020935687	3563.8799070229343	752.1200894207602	1236.066516641972	3597.1670725230742	734.9495182871985	1331.5782776104388	3560.800086166347	688.4534490606476	1280.0600945596311	3475.3329907169664	720.6707086864802	1272.7391007997155	3617.1827684941777	725.6917870692297	-122.79273582156252	3534.214222984324	640.0852035990279	-381.46368702659134	3501.6764415019857	628.2744865934487	-239.22383895751003	3443.937076353374	598.0304535707044	-36.11108693526503	3655.2034056096845	532.8728360084348	185.32370370647757	3725.373262577189	457.9926992266433	398.7450535231628	3651.418065586283	404.89201837638313	462.7548504786799	3489.478946693304	368.64382342796665	477.46286755158815	3487.493736459039	362.408101446032	496.80511869961737	3565.1109640487293	374.99566134081294	-14.252524113951004	3523.0055661085007	814.8712301611417	239.80542860540697	3457.894488916295	851.327485645909	492.17142100952367	3432.9952480253432	845.5119063754998	596.5389809785373	3431.1613097010986	818.0872010494572	609.525117669005	3415.989698120895	826.3152344920077	608.1900976623957	3380.078515203396	864.5858225316147
278	4.633333333333334	459.95027803890855	3620.763896158123	540.1834888234484	851.4188300227266	3675.6904343274537	555.5320250620586	1243.392243750684	3707.2227853638246	617.3053638581634	1333.6176837236828	3627.266941072116	612.4130679370068	1312.7477172748281	3639.5579901884544	550.1908567879368	1278.2585280993187	3703.211252204701	632.2952716223076	460.77091263969305	3504.8148782711532	732.5217548008579	881.3238802435482	3564.0248857579536	752.1468697256579	1235.813188646	3594.1453830268783	731.8422004514902	1331.7389539839905	3561.8041906478743	687.0114772195907	1280.7286613054698	3476.2911079817773	719.547658751965	1273.845468416831	3617.1487738735445	725.297936998365	-122.7865539663693	3534.257576135659	640.0975802658468	-379.42781476387614	3500.778483588045	627.7758574938716	-239.19962010131871	3446.0726022852296	598.6435392062353	-37.371633874329845	3656.0160307079814	532.949606952155	184.27311879775147	3729.4718426873924	459.60582747420955	396.55164371493095	3650.631385085268	403.3156784773849	451.27824825102647	3480.8722742672853	364.33056995482036	467.0507099611089	3480.7520963205257	358.4293720909959	493.73006688665953	3565.1380401791994	376.7249367505405	-14.409282661521539	3521.6003531668657	813.3152437011535	239.4743044397117	3458.322596017296	848.8458576471444	493.0306051060583	3437.9589987893733	847.2527798396293	597.008949586161	3430.3003593824264	817.3158173933068	609.0036120029782	3413.67266586401	823.5265340479905	607.7122367369508	3379.1535408442483	860.7979312465638
279	4.65	458.4244716647895	3618.1054005487417	538.5353292874777	853.3401708636981	3676.3211460070074	556.060462335369	1243.820733731943	3706.5114388053494	616.5189355231391	1333.8925983519928	3629.3957434509175	612.9194798952508	1313.5804326040943	3640.4663497530764	549.9474425064748	1278.0807885900208	3702.2121182480773	632.8194200706238	459.5938604927557	3503.8076621575265	732.1422802163551	881.8999235073047	3563.9323154213184	752.2851890186191	1236.3405211386712	3592.221018118034	729.4391318845788	1332.1321174215466	3563.1174250502327	686.3876854280795	1281.7082452133554	3477.4541277544167	718.3722806751781	1274.8733677332975	3616.6583896510465	724.337455269886	-122.79052109785788	3534.2556996388885	640.0898669634494	-377.5943093998293	3500.368833726032	627.529599368412	-238.86683750705242	3446.38562159898	598.7515593880076	-39.02656201766243	3652.7963828160473	532.0192896276559	182.80555041667918	3730.109382873988	458.93940141370257	393.18354804165125	3649.517503340366	403.0409139145082	440.21864595789975	3474.5511171350927	362.24145045974984	455.5410939992932	3474.692296939044	355.70763135939274	489.482364843449	3561.8295501627804	377.07310995072294	-14.327964597208224	3527.0431315877354	814.9462706836108	240.89700269086484	3457.694313341707	845.1837676992106	493.3109517165765	3440.2563088396646	847.5911155936483	597.3425558391609	3429.3004909922	816.4553831064516	607.7220814915573	3407.337399983684	819.8283197673035	607.202971435311	3379.5002836661924	855.9213747780386
